<svg width="17" height="16" viewBox="0 0 17 16" fill="none" xmlns="http://www.w3.org/2000/svg">
<path d="M1.56873 5.55104V3.06836H10.1202V11.6198H7.0858" stroke="#292929" stroke-width="0.8" stroke-linecap="round" stroke-linejoin="round"/>
<path d="M1.56787 5.20654V11.6201H3.17127" stroke="#292929" stroke-width="0.8" stroke-linecap="round" stroke-linejoin="round"/>
<path d="M11.4565 11.6196H6.91357" stroke="#292929" stroke-width="0.8" stroke-linecap="round" stroke-linejoin="round"/>
<path d="M10.3879 4.67236H13.3275L15.9998 6.81023V11.6204H14.9309" stroke="#292929" stroke-width="0.8" stroke-linecap="round" stroke-linejoin="round"/>
<path d="M11.4563 8.94723V6.2749H13.3269L14.3959 7.0766V8.94723H11.4563Z" stroke="#292929" stroke-width="0.8" stroke-linecap="round" stroke-linejoin="round"/>
<path d="M5.97924 12.4216C5.97924 12.9386 5.5601 13.3578 5.04307 13.3578C4.52604 13.3578 4.10691 12.9386 4.10691 12.4216C4.10691 11.9046 4.52604 11.4854 5.04307 11.4854C5.5601 11.4854 5.97924 11.9046 5.97924 12.4216Z" stroke="#292929" stroke-width="0.8" stroke-linecap="round" stroke-linejoin="round"/>
<path d="M13.7723 12.3362C13.7723 12.8532 13.3532 13.2723 12.8362 13.2723C12.3191 13.2723 11.9 12.8532 11.9 12.3362C11.9 11.8191 12.3191 11.4 12.8362 11.4C13.3532 11.4 13.7723 11.8191 13.7723 12.3362Z" stroke="#292929" stroke-width="0.8" stroke-linecap="round" stroke-linejoin="round"/>
</svg>
