<svg width="24" height="24" viewBox="0 0 24 24" fill="none" xmlns="http://www.w3.org/2000/svg">
<g clip-path="url(#clip0)">
<circle cx="8.57143" cy="11.9999" r="8.57143" fill="#FFE6DE"/>
<path d="M20.0714 14.7692C20.0714 19.6431 16.8175 23.5 12 23.5C7.18255 23.5 3.92859 19.6431 3.92859 14.7692C3.92859 11.4171 5.97965 7.83871 8.11191 5.04217C9.1687 3.65615 10.2266 2.48618 11.0207 1.66263C11.4174 1.25115 11.7475 0.926885 11.9778 0.706164C11.9869 0.697395 11.9959 0.68879 12.0047 0.68035C12.0121 0.687195 12.0195 0.694151 12.0271 0.701216C12.257 0.915881 12.5868 1.2318 12.9832 1.63401C13.7765 2.439 14.8337 3.58664 15.8896 4.95735C18.0185 7.72069 20.0714 11.3 20.0714 14.7692Z" stroke="#292929"/>
</g>
<defs>
<clipPath id="clip0">
<rect width="24" height="24" fill="white"/>
</clipPath>
</defs>
</svg>
