<svg width="25" height="24" viewBox="0 0 25 24" fill="none" xmlns="http://www.w3.org/2000/svg">
<path d="M10.9997 8.59985L10.6383 8.94538L10.9996 9.32331L11.361 8.94545L10.9997 8.59985ZM19.2888 12.0663L19.7751 12.1826L19.2888 12.0663ZM10.9997 18.9993L10.8733 18.5155L10.8733 18.5155L10.9997 18.9993ZM2.71129 12.0663L3.19758 11.95L2.71129 12.0663ZM11.361 8.94545C12.3209 7.94183 12.7718 6.5 15.1444 6.5V5.5C12.2122 5.5 11.3362 7.52463 10.6384 8.25425L11.361 8.94545ZM15.1444 6.5C16.6629 6.5 17.7371 7.08818 18.3552 8.0114C18.9823 8.94805 19.1942 10.3116 18.8025 11.95L19.7751 12.1826C20.2122 10.3545 20.0096 8.68496 19.1862 7.45507C18.3538 6.21175 16.9414 5.5 15.1444 5.5V6.5ZM18.8025 11.95C18.6265 12.6859 18.0934 13.4698 17.3204 14.2522C16.555 15.0269 15.5964 15.7583 14.6418 16.3942C13.6893 17.0288 12.7533 17.5599 12.0411 17.9362C11.6852 18.1241 11.3868 18.2726 11.172 18.3752C11.0643 18.4266 10.9791 18.4658 10.919 18.4924C10.8375 18.5285 10.8392 18.5244 10.8733 18.5155L11.1261 19.483C11.1888 19.4666 11.2737 19.429 11.3236 19.4069C11.3949 19.3753 11.4893 19.3318 11.6029 19.2776C11.8304 19.1689 12.1409 19.0144 12.5082 18.8204C13.242 18.4327 14.2086 17.8844 15.1962 17.2265C16.1817 16.5699 17.2009 15.7959 18.0317 14.955C18.8549 14.1219 19.5366 13.1799 19.7751 12.1826L18.8025 11.95ZM10.8733 18.5155C10.9622 18.4923 11.0325 18.5017 11.0416 18.5028C11.0632 18.5053 11.0768 18.5087 11.0778 18.509C11.0807 18.5097 11.0716 18.5075 11.0458 18.4983C10.9964 18.4807 10.9191 18.4496 10.8137 18.4031C10.6049 18.3111 10.3105 18.1698 9.95578 17.9851C9.24687 17.6161 8.31224 17.0821 7.3602 16.4405C6.40627 15.7976 5.4475 15.0552 4.68169 14.2711C3.90806 13.479 3.37387 12.6872 3.19758 11.95L2.225 12.1826C2.46322 13.1787 3.14379 14.1276 3.96629 14.9698C4.79661 15.8199 5.81533 16.6052 6.80134 17.2697C7.78924 17.9355 8.75701 18.4885 9.49405 18.8721C9.86234 19.0639 10.1768 19.2153 10.4104 19.3182C10.5262 19.3692 10.6284 19.4111 10.7104 19.4403C10.7503 19.4546 10.7949 19.4692 10.8386 19.4799C10.86 19.4852 10.8908 19.492 10.9263 19.4961C10.9492 19.4988 11.0301 19.5081 11.1261 19.483L10.8733 18.5155ZM3.19758 11.95C2.80576 10.3116 3.01759 8.94802 3.64462 8.01138C4.26266 7.08818 5.33687 6.5 6.85533 6.5V5.5C5.05829 5.5 3.64598 6.21175 2.81364 7.45508C1.99028 8.68499 1.78784 10.3546 2.225 12.1826L3.19758 11.95ZM6.85533 6.5C7.75596 6.5 8.47721 6.86775 9.09057 7.36373C9.72826 7.8794 10.1786 8.4646 10.6383 8.94538L11.3611 8.25432C10.9922 7.86848 10.4213 7.15376 9.71935 6.58615C8.99309 5.99887 8.05644 5.5 6.85533 5.5V6.5Z" fill="#292929"/>
<path d="M20.1945 10C18.7902 10 18.439 10.9333 18.0002 11.3999C17.5616 10.9333 16.9188 10 15.8061 10C14.0509 10 13.1734 11.3999 13.6122 13.2665C14.0511 15.1331 17.8794 17.0317 18.0002 16.9996C18.1211 16.9675 21.9497 15.133 22.3885 13.2665C22.8274 11.3999 21.9497 10 20.1945 10Z" fill="#FFE6DE"/>
</svg>
