<svg width="250" height="249" viewBox="0 0 250 249" fill="none" xmlns="http://www.w3.org/2000/svg">
<g clip-path="url(#clip0)">
<path d="M105.734 16.4677C160.812 1.75426 215.562 37.3526 230.676 93.5872C245.79 149.822 207.623 215.699 152.545 230.412C97.4677 245.126 26.6861 179.706 11.5725 123.471C-3.54116 67.2367 50.6566 31.1812 105.734 16.4677Z" fill="#1E3844"/>
<path d="M50.396 97.6382C53.0025 97.6382 55.2229 98.0553 57.0572 98.8894C58.8914 99.7236 60.2913 100.927 61.2567 102.499C62.222 104.071 62.7047 105.98 62.7047 108.225C62.7047 110.471 62.222 112.38 61.2567 113.952C60.2913 115.524 58.8914 116.727 57.0572 117.562C55.2229 118.396 53.0025 118.813 50.396 118.813H44.0726V129.4H35.7703V97.6382H50.396ZM49.0927 112.605C50.8304 112.605 52.1337 112.252 53.0025 111.546C53.9036 110.808 54.3541 109.701 54.3541 108.225C54.3541 106.75 53.9036 105.659 53.0025 104.953C52.1337 104.215 50.8304 103.846 49.0927 103.846H44.0726V112.605H49.0927Z" fill="white"/>
<path d="M78.1676 104.857C80.7098 104.857 82.9302 105.354 84.8288 106.349C86.7596 107.311 88.256 108.739 89.3179 110.632C90.412 112.492 90.9591 114.738 90.9591 117.369C90.9591 120 90.412 122.262 89.3179 124.154C88.256 126.015 86.7596 127.443 84.8288 128.438C82.9302 129.4 80.7098 129.881 78.1676 129.881C75.6898 129.881 73.4855 129.4 71.5547 128.438C69.6239 127.443 68.1115 126.015 67.0173 124.154C65.9554 122.262 65.4244 120 65.4244 117.369C65.4244 114.738 65.9554 112.492 67.0173 110.632C68.1115 108.739 69.6239 107.311 71.5547 106.349C73.4855 105.354 75.6898 104.857 78.1676 104.857ZM78.1676 110.68C77.2344 110.68 76.4299 110.904 75.7541 111.354C75.0784 111.803 74.5635 112.525 74.2095 113.519C73.8555 114.514 73.6786 115.797 73.6786 117.369C73.6786 118.941 73.8555 120.224 74.2095 121.219C74.5635 122.181 75.0784 122.903 75.7541 123.385C76.4299 123.834 77.2344 124.058 78.1676 124.058C79.133 124.058 79.9536 123.834 80.6294 123.385C81.3052 122.903 81.82 122.181 82.174 121.219C82.528 120.224 82.705 118.941 82.705 117.369C82.705 115.797 82.528 114.514 82.174 113.519C81.82 112.525 81.3052 111.803 80.6294 111.354C79.9536 110.904 79.133 110.68 78.1676 110.68Z" fill="white"/>
<path d="M95.5753 139.506V105.338H102.961L103.395 114.048L102.43 113.038C102.655 111.434 103.154 110.022 103.926 108.803C104.698 107.584 105.696 106.621 106.919 105.916C108.141 105.21 109.541 104.857 111.118 104.857C113.113 104.857 114.851 105.354 116.331 106.349C117.811 107.311 118.954 108.723 119.758 110.584C120.595 112.412 121.013 114.642 121.013 117.273C121.013 119.904 120.595 122.165 119.758 124.058C118.922 125.951 117.747 127.395 116.235 128.389C114.754 129.384 113.017 129.881 111.022 129.881C108.833 129.881 107.063 129.24 105.712 127.956C104.36 126.641 103.459 124.989 103.009 123L103.781 121.845V139.506H95.5753ZM108.222 123.866C109.638 123.866 110.748 123.352 111.553 122.326C112.357 121.267 112.759 119.615 112.759 117.369C112.759 115.123 112.357 113.487 111.553 112.46C110.78 111.402 109.686 110.872 108.27 110.872C107.369 110.872 106.581 111.129 105.905 111.642C105.229 112.123 104.698 112.845 104.312 113.808C103.958 114.77 103.781 115.957 103.781 117.369C103.781 118.716 103.942 119.887 104.264 120.882C104.618 121.845 105.133 122.582 105.808 123.096C106.484 123.609 107.289 123.866 108.222 123.866Z" fill="white"/>
<path d="M133.996 129.881C132.354 129.881 130.906 129.609 129.651 129.063C128.429 128.486 127.463 127.571 126.755 126.32C126.047 125.069 125.693 123.433 125.693 121.411V105.338H133.899V119.486C133.899 121.026 134.205 122.101 134.816 122.711C135.428 123.32 136.297 123.625 137.423 123.625C138.002 123.625 138.549 123.529 139.064 123.336C139.579 123.112 140.029 122.791 140.416 122.374C140.802 121.925 141.091 121.363 141.284 120.69C141.51 119.984 141.622 119.166 141.622 118.235V105.338H149.828V129.4H142.491L142.25 124.876C141.477 126.577 140.399 127.844 139.016 128.678C137.632 129.48 135.959 129.881 133.996 129.881Z" fill="white"/>
<path d="M163.833 95.1357V121.219C163.833 122.278 164.01 123.032 164.364 123.481C164.718 123.93 165.313 124.154 166.15 124.154C166.633 124.154 167.035 124.122 167.357 124.058C167.679 123.994 168.065 123.898 168.515 123.77L167.984 128.678C167.405 129.031 166.649 129.32 165.716 129.544C164.782 129.769 163.865 129.881 162.964 129.881C160.39 129.881 158.523 129.288 157.365 128.101C156.206 126.914 155.627 124.973 155.627 122.278V95.1357H163.833Z" fill="white"/>
<path d="M185.359 114.145C185.359 113.022 185.038 112.14 184.394 111.498C183.783 110.824 182.946 110.487 181.884 110.487C180.822 110.487 179.905 110.76 179.133 111.305C178.393 111.819 177.878 112.749 177.588 114.097L170.637 112.46C171.088 110.15 172.278 108.306 174.209 106.926C176.14 105.547 178.859 104.857 182.367 104.857C184.716 104.857 186.711 105.21 188.352 105.916C190.026 106.589 191.297 107.616 192.166 108.995C193.067 110.343 193.517 112.011 193.517 114V122.807C193.517 124.058 194.08 124.684 195.206 124.684C195.786 124.684 196.252 124.62 196.606 124.491L196.124 129.159C195.158 129.609 193.984 129.833 192.6 129.833C191.345 129.833 190.235 129.641 189.269 129.256C188.304 128.839 187.548 128.229 187.001 127.427C186.454 126.593 186.18 125.55 186.18 124.299V124.01L187.097 123.673C187.097 125.053 186.679 126.208 185.842 127.138C185.038 128.069 183.976 128.758 182.656 129.208C181.369 129.657 180.018 129.881 178.602 129.881C176.961 129.881 175.529 129.625 174.306 129.111C173.083 128.598 172.134 127.86 171.458 126.898C170.814 125.903 170.492 124.684 170.492 123.24C170.492 121.508 171.007 120.08 172.037 118.957C173.099 117.802 174.756 117 177.009 116.551L186.132 114.674L186.084 119.005L181.45 119.968C180.484 120.16 179.76 120.449 179.278 120.834C178.827 121.187 178.602 121.732 178.602 122.47C178.602 123.176 178.859 123.705 179.374 124.058C179.889 124.411 180.5 124.588 181.208 124.588C181.755 124.588 182.27 124.507 182.753 124.347C183.268 124.187 183.718 123.946 184.104 123.625C184.491 123.272 184.796 122.839 185.022 122.326C185.247 121.812 185.359 121.203 185.359 120.497V114.145Z" fill="white"/>
<path d="M199.845 129.4V105.338H207.086L207.424 110.535C208.035 108.739 208.936 107.343 210.127 106.349C211.35 105.354 212.894 104.857 214.761 104.857C215.372 104.857 215.887 104.905 216.305 105.001C216.756 105.097 217.11 105.226 217.367 105.386L216.547 112.123C216.225 111.995 215.806 111.899 215.292 111.835C214.809 111.739 214.214 111.69 213.506 111.69C212.54 111.69 211.639 111.899 210.803 112.316C209.966 112.733 209.29 113.359 208.775 114.193C208.292 114.995 208.051 116.022 208.051 117.273V129.4H199.845Z" fill="white"/>
</g>
<defs>
<clipPath id="clip0">
<rect width="248.8" height="248.049" fill="white" transform="translate(0.560059 0.414551)"/>
</clipPath>
</defs>
</svg>
