<svg width="80" height="58" viewBox="0 0 80 58" fill="none" xmlns="http://www.w3.org/2000/svg">
<path d="M0.435791 16.1433C0.435791 8.31782 6.44993 1.80865 14.2613 1.33925C22.2459 0.859453 32.2165 0.376465 39.9999 0.376465C47.7833 0.376465 57.754 0.859453 65.7386 1.33925C73.5499 1.80864 79.5641 8.31781 79.5641 16.1433V41.8108C79.5641 49.6363 73.5499 56.1454 65.7386 56.6148C57.754 57.0946 47.7833 57.5776 39.9999 57.5776C32.2165 57.5776 22.2459 57.0946 14.2613 56.6148C6.44994 56.1454 0.435791 49.6363 0.435791 41.8108V16.1433Z" fill="#292929" fill-opacity="0.8"/>
<path d="M56.137 28.111C56.8036 28.4959 56.8036 29.4581 56.137 29.843L31.9664 43.7979C31.2997 44.1828 30.4664 43.7017 30.4664 42.9319L30.4664 15.0221C30.4664 14.2523 31.2997 13.7712 31.9664 14.1561L56.137 28.111Z" fill="white"/>
</svg>
