<svg width="49" height="48" viewBox="0 0 49 48" fill="none" xmlns="http://www.w3.org/2000/svg">
<path d="M5.20588 12.9467C5.36917 12.5191 5.79979 11.8672 6.49598 11.044C7.17283 10.2436 8.03659 9.35486 8.98056 8.46228C10.4929 7.03225 12.1737 5.6274 13.5531 4.59848C14.186 6.04575 14.9445 7.9539 15.5648 9.88413C15.9617 11.1192 16.297 12.3474 16.5081 13.4599C16.7218 14.5863 16.7957 15.531 16.7122 16.2239C16.288 19.7479 12.395 22.0551 8.87862 20.7122C7.01713 20.0014 5.7938 18.9096 5.18191 17.6328C4.57417 16.3647 4.5054 14.7811 5.20588 12.9467Z" stroke="#292929" stroke-width="2"/>
<path d="M22.0004 29.9089C22.1548 28.9811 22.7167 27.617 23.6221 25.9504C24.5136 24.3095 25.6899 22.461 26.9936 20.5893C29.2928 17.2886 31.9528 13.9663 34.0715 11.6461C35.7168 14.0053 37.9013 17.3929 39.8062 20.8901C42.0247 24.9628 43.7658 29.0112 43.9724 31.7453C44.4837 38.5082 38.2149 44.1278 31.4163 42.9312C27.8994 42.3123 25.2804 40.7692 23.6779 38.5864C22.0793 36.4089 21.4064 33.478 22.0004 29.9089Z" stroke="#292929" stroke-width="2"/>
</svg>
