<svg width="48" height="48" viewBox="0 0 48 48" fill="none" xmlns="http://www.w3.org/2000/svg">
<mask id="path-1-inside-1" fill="white">
<path d="M34.7267 6C27.8616 6 26.1446 10.7997 23.9992 13.1996C21.8547 10.7997 18.7124 6 13.2726 6C4.69131 6 0.401259 13.1996 2.54687 22.799C4.69252 32.3986 23.4084 42.1632 23.9992 41.9979C24.5901 41.8327 43.308 32.3985 45.4533 22.799C47.5986 13.1996 43.308 6 34.7267 6Z"/>
</mask>
<path d="M23.9992 13.1996L22.5079 14.5322L23.999 16.2008L25.4903 14.5325L23.9992 13.1996ZM45.4533 22.799L43.5014 22.3628L45.4533 22.799ZM23.9992 41.9979L24.5379 43.924L24.5379 43.924L23.9992 41.9979ZM2.54687 22.799L0.595035 23.2353L2.54687 22.799ZM25.4903 14.5325C28.1761 11.528 29.035 8 34.7267 8V4C26.6883 4 24.113 10.0714 22.5082 11.8667L25.4903 14.5325ZM34.7267 8C38.4012 8 40.9426 9.50439 42.4171 11.8606C43.9377 14.2908 44.4957 17.9138 43.5014 22.3628L47.4052 23.2352C48.5562 18.0849 48.0415 13.3083 45.8079 9.73881C43.528 6.0954 39.6335 4 34.7267 4V8ZM43.5014 22.3628C43.0765 24.2643 41.7732 26.3424 39.8098 28.4685C37.8708 30.5683 35.4304 32.5629 32.9825 34.3077C30.5423 36.047 28.142 37.5045 26.3149 38.5372C25.4025 39.0529 24.6392 39.4591 24.0928 39.7383C23.8188 39.8783 23.6051 39.9833 23.4582 40.0529C23.3837 40.0881 23.3349 40.1102 23.3084 40.1218C23.2372 40.1528 23.3249 40.1098 23.4606 40.0718L24.5379 43.924C24.7105 43.8758 24.8706 43.8043 24.905 43.7893C24.9841 43.7549 25.0741 43.7135 25.1698 43.6682C25.363 43.5767 25.6141 43.4528 25.9127 43.3003C26.5114 42.9944 27.3241 42.5615 28.2831 42.0195C30.1988 40.9367 32.7229 39.4048 35.3042 37.565C37.8778 35.7306 40.556 33.5564 42.7485 31.1822C44.9165 28.8345 46.7574 26.1335 47.4052 23.2352L43.5014 22.3628ZM23.4606 40.0718C23.8444 39.9645 24.154 40.0074 24.2048 40.0137C24.3085 40.0266 24.3807 40.0452 24.4017 40.0507C24.4471 40.0627 24.4522 40.0672 24.3965 40.046C24.2944 40.0071 24.1137 39.9301 23.8488 39.8052C23.3275 39.5594 22.5808 39.1761 21.6729 38.6705C19.8593 37.6604 17.4644 36.1964 15.0258 34.438C12.5805 32.6748 10.1389 30.6497 8.19803 28.5236C6.23214 26.37 4.92482 24.2692 4.49871 22.3628L0.595035 23.2353C1.24176 26.1287 3.07853 28.8483 5.2438 31.2203C7.43411 33.6197 10.1107 35.8254 12.6864 37.6826C15.2688 39.5446 17.7978 41.0908 19.7266 42.165C20.69 42.7016 21.5192 43.1291 22.1429 43.4232C22.4504 43.5682 22.7345 43.6933 22.9725 43.784C23.0869 43.8276 23.2309 43.8787 23.3819 43.9186C23.4557 43.938 23.5724 43.9659 23.712 43.9832C23.7987 43.994 24.1356 44.0365 24.5379 43.924L23.4606 40.0718ZM4.49871 22.3628C3.50427 17.9137 4.06211 14.2907 5.58262 11.8606C7.05687 9.50437 9.59814 8 13.2726 8V4C8.36578 4 4.47137 6.09542 2.19168 9.73888C-0.0417593 13.3084 -0.55614 18.085 0.595035 23.2353L4.49871 22.3628ZM13.2726 8C15.3482 8 17.0463 8.90001 18.5631 10.2123C20.1713 11.6037 21.2607 13.1365 22.5079 14.5322L25.4906 11.8669C24.5933 10.8628 23.0393 8.7958 21.1802 7.18736C19.2298 5.49985 16.6368 4 13.2726 4V8Z" fill="#222222" mask="url(#path-1-inside-1)"/>
</svg>
