<svg width="45" height="42" viewBox="0 0 45 42" fill="none" xmlns="http://www.w3.org/2000/svg">
<path d="M41.8755 11.5162C42.4026 12.4292 42.361 13.73 41.57 15.2179C40.7869 16.6911 39.3301 18.2014 37.3555 19.3414C35.3809 20.4815 33.3446 20.9879 31.6772 20.9295C29.9932 20.8705 28.8458 20.2562 28.3187 19.3432C27.7916 18.4302 27.8332 17.1294 28.6241 15.6415C29.4073 14.1683 30.864 12.658 32.8386 11.5179C34.8132 10.3779 36.8496 9.87147 38.517 9.92986C40.201 9.98882 41.3484 10.6032 41.8755 11.5162Z" stroke="#292929" stroke-width="2"/>
<path d="M39.6694 28.9002C39.9773 29.4335 39.9834 30.2485 39.4469 31.2577C38.9182 32.2522 37.9226 33.2911 36.5554 34.0805C35.1883 34.8698 33.7907 35.2126 32.6651 35.1732C31.5228 35.1332 30.8201 34.7204 30.5122 34.1871C30.2043 33.6537 30.1981 32.8388 30.7346 31.8296C31.2633 30.835 32.259 29.7961 33.6261 29.0068C34.9933 28.2174 36.3908 27.8746 37.5165 27.9141C38.6587 27.954 39.3614 28.3668 39.6694 28.9002Z" stroke="#292929" stroke-width="2"/>
<path d="M30.5 21.3443C29.1905 21.3443 27.9189 20.999 26.5951 20.999C26.2565 20.999 25.9179 20.999 25.5793 20.999C24.7973 20.999 24.1308 21.784 23.64 22.2906C22.4356 23.534 22.6611 25.1074 22.2483 26.6193C21.7902 28.2967 20.2779 28.9559 18.561 29.1193C16.8049 29.2864 14.7627 28.8902 13.1127 28.3265C12.4961 28.1158 12.017 27.9768 11.3581 28.0323C8.83869 28.2447 9.00319 30.7747 7.783 32.3674C6.87736 33.5495 5.78432 34.4979 4.26727 33.7101C3.73194 33.4321 3.25767 33.0364 2.73038 32.7383C2.3906 32.5461 2.46161 32.5731 2.71718 32.7383" stroke="#292929" stroke-width="2" stroke-linecap="round" stroke-linejoin="round"/>
<path d="M17.5 40.9973C19.282 40.9973 20.6426 41.1126 21.5635 39.4657C22.2118 38.3063 22.5396 36.4925 24.2857 36.8561C25.7754 37.1662 27.1514 37.1623 28.2143 35.8821C28.5065 35.5301 29.3592 34.1493 29.8571 34.0457C30.4213 33.9282 31.025 34.0389 31.5 34.3059" stroke="#292929" stroke-width="2" stroke-linecap="round" stroke-linejoin="round"/>
<path d="M9.21913 5.19044C10.336 5.19044 11.2157 5.47213 11.8582 6.03552C12.5006 6.58902 12.8218 7.35997 12.8218 8.34837C12.8218 9.34665 12.5006 10.1225 11.8582 10.6761C11.2157 11.2296 10.336 11.5063 9.21913 11.5063H7.15832V14.9756H5.11233V5.19044H9.21913ZM8.90778 9.89027C10.1334 9.89027 10.7462 9.37631 10.7462 8.34837C10.7462 7.32044 10.1334 6.80647 8.90778 6.80647H7.15832V9.89027H8.90778ZM16.7431 5.19044V9.20828H21.0574V5.19044H23.1034V14.9756H21.0574V10.854H16.7431V14.9756H14.6971V5.19044H16.7431Z" fill="#292929"/>
</svg>
